<svg width="160" height="332" viewBox="0 0 160 332" fill="none" xmlns="http://www.w3.org/2000/svg">
<rect x="113.73" y="315.94" width="112.058" height="526.941" transform="rotate(-180 113.73 315.94)" fill="#FF298A"/>
<path d="M106.929 329.415C106.447 330.43 105.002 330.43 104.52 329.415L98.5438 316.847C98.123 315.962 98.7684 314.94 99.7486 314.94L111.7 314.94C112.68 314.94 113.326 315.962 112.905 316.847L106.929 329.415Z" fill="#FF298A"/>
<path d="M58.9056 329.415C58.4231 330.43 56.9787 330.43 56.4961 329.415L50.5204 316.847C50.0995 315.962 50.745 314.94 51.7252 314.94L63.6766 314.94C64.6567 314.94 65.3022 315.962 64.8813 316.847L58.9056 329.415Z" fill="#FF298A"/>
<path d="M90.9213 329.415C90.4387 330.43 88.9943 330.43 88.5117 329.415L82.536 316.847C82.1151 315.962 82.7606 314.94 83.7408 314.94L95.6922 314.94C96.6724 314.94 97.3178 315.962 96.897 316.847L90.9213 329.415Z" fill="#FF298A"/>
<path d="M42.8939 329.415C42.4114 330.43 40.9669 330.43 40.4844 329.415L34.5087 316.847C34.0878 315.962 34.7333 314.94 35.7135 314.94L47.6648 314.94C48.645 314.94 49.2905 315.962 48.8696 316.847L42.8939 329.415Z" fill="#FF298A"/>
<path d="M74.9135 329.415C74.4309 330.43 72.9865 330.43 72.5039 329.415L66.5282 316.847C66.1073 315.962 66.7528 314.94 67.733 314.94L79.6844 314.94C80.6645 314.94 81.31 315.962 80.8892 316.847L74.9135 329.415Z" fill="#FF298A"/>
<path d="M26.8861 329.415C26.4036 330.43 24.9591 330.43 24.4766 329.415L18.5009 316.847C18.08 315.962 18.7255 314.94 19.7056 314.94L31.657 314.94C32.6372 314.94 33.2827 315.962 32.8618 316.847L26.8861 329.415Z" fill="#FF298A"/>
<path d="M10.8783 329.415C10.3957 330.43 8.95131 330.43 8.46875 329.415L2.49305 316.847C2.07217 315.962 2.71767 314.94 3.69784 314.94L15.6492 314.94C16.6294 314.94 17.2749 315.962 16.854 316.847L10.8783 329.415Z" fill="#FF298A"/>
</svg>
