<svg width="160" height="176" viewBox="0 0 160 176" fill="none" xmlns="http://www.w3.org/2000/svg">
<rect x="113.648" y="159.94" width="112.058" height="526.941" transform="rotate(-180 113.648 159.94)" fill="#DAEE75"/>
<path d="M106.847 173.415C106.364 174.43 104.92 174.43 104.437 173.415L98.4618 160.847C98.0409 159.962 98.6864 158.94 99.6666 158.94L111.618 158.94C112.598 158.94 113.244 159.962 112.823 160.847L106.847 173.415Z" fill="#DAEE75"/>
<path d="M58.8236 173.415C58.3411 174.43 56.8966 174.43 56.4141 173.415L50.4384 160.847C50.0175 159.962 50.663 158.94 51.6431 158.94L63.5945 158.94C64.5747 158.94 65.2202 159.962 64.7993 160.847L58.8236 173.415Z" fill="#DAEE75"/>
<path d="M90.8392 173.415C90.3567 174.43 88.9122 174.43 88.4297 173.415L82.454 160.847C82.0331 159.962 82.6786 158.94 83.6588 158.94L95.6102 158.94C96.5903 158.94 97.2358 159.962 96.8149 160.847L90.8392 173.415Z" fill="#DAEE75"/>
<path d="M42.8119 173.415C42.3293 174.43 40.8849 174.43 40.4023 173.415L34.4266 160.847C34.0058 159.962 34.6513 158.94 35.6314 158.94L47.5828 158.94C48.563 158.94 49.2085 159.962 48.7876 160.847L42.8119 173.415Z" fill="#DAEE75"/>
<path d="M74.8314 173.415C74.3489 174.43 72.9044 174.43 72.4219 173.415L66.4462 160.847C66.0253 159.962 66.6708 158.94 67.651 158.94L79.6023 158.94C80.5825 158.94 81.228 159.962 80.8071 160.847L74.8314 173.415Z" fill="#DAEE75"/>
<path d="M26.8041 173.415C26.3215 174.43 24.8771 174.43 24.3945 173.415L18.4188 160.847C17.998 159.962 18.6434 158.94 19.6236 158.94L31.575 158.94C32.5552 158.94 33.2007 159.962 32.7798 160.847L26.8041 173.415Z" fill="#DAEE75"/>
<path d="M10.7963 173.415C10.3137 174.43 8.86928 174.43 8.38671 173.415L2.41102 160.847C1.99014 159.962 2.63563 158.94 3.61581 158.94L15.5672 158.94C16.5474 158.94 17.1928 159.962 16.772 160.847L10.7963 173.415Z" fill="#DAEE75"/>
</svg>
