<svg width="174" height="21" viewBox="0 0 174 21" fill="none" xmlns="http://www.w3.org/2000/svg">
<rect x="69.6215" y="13.6841" width="6.91917" height="6.8422" transform="rotate(-180 69.6215 13.6841)" fill="white"/>
<rect x="124.975" y="13.6841" width="6.91917" height="6.8422" transform="rotate(-180 124.975 13.6841)" fill="white"/>
<rect x="14.2679" y="13.6841" width="6.91917" height="6.8422" transform="rotate(-180 14.2679 13.6841)" fill="white"/>
<rect x="152.652" y="13.6841" width="6.91917" height="6.8422" transform="rotate(-180 152.652 13.6841)" fill="white"/>
<rect x="41.9449" y="13.6837" width="6.91917" height="6.8422" transform="rotate(-180 41.9449 13.6837)" fill="white"/>
<rect x="97.298" y="13.6841" width="6.91917" height="6.8422" transform="rotate(-180 97.298 13.6841)" fill="white"/>
<rect x="173.409" y="20.5264" width="6.91917" height="6.8422" transform="rotate(-180 173.409 20.5264)" fill="white"/>
<rect x="173.409" y="6.84229" width="6.91917" height="6.8422" transform="rotate(-180 173.409 6.84229)" fill="white"/>
<rect x="62.702" y="20.5264" width="6.91917" height="6.8422" transform="rotate(-180 62.702 20.5264)" fill="white"/>
<rect x="62.702" y="6.84229" width="6.91917" height="6.8422" transform="rotate(-180 62.702 6.84229)" fill="white"/>
<rect x="118.056" y="20.5264" width="6.91917" height="6.8422" transform="rotate(-180 118.056 20.5264)" fill="white"/>
<rect x="118.056" y="6.84229" width="6.91917" height="6.8422" transform="rotate(-180 118.056 6.84229)" fill="white"/>
<rect x="7.34955" y="20.5264" width="6.91917" height="6.8422" transform="rotate(-180 7.34955 20.5264)" fill="white"/>
<rect x="7.34955" y="6.84229" width="6.91917" height="6.8422" transform="rotate(-180 7.34955 6.84229)" fill="white"/>
<rect x="145.732" y="20.5264" width="6.91917" height="6.8422" transform="rotate(-180 145.732 20.5264)" fill="white"/>
<rect x="145.732" y="6.84229" width="6.91917" height="6.8422" transform="rotate(-180 145.732 6.84229)" fill="white"/>
<rect x="35.0253" y="20.5264" width="6.91917" height="6.8422" transform="rotate(-180 35.0253 20.5264)" fill="white"/>
<rect x="35.0253" y="6.84229" width="6.91917" height="6.8422" transform="rotate(-180 35.0253 6.84229)" fill="white"/>
<rect x="90.379" y="20.5264" width="6.91917" height="6.8422" transform="rotate(-180 90.379 20.5264)" fill="white"/>
<rect x="90.379" y="6.84229" width="6.91917" height="6.8422" transform="rotate(-180 90.379 6.84229)" fill="white"/>
<rect x="166.49" y="13.6841" width="6.91917" height="6.8422" transform="rotate(-180 166.49 13.6841)" fill="white"/>
<rect x="55.7839" y="13.6841" width="6.91917" height="6.8422" transform="rotate(-180 55.7839 13.6841)" fill="white"/>
<rect x="111.137" y="13.6841" width="6.91917" height="6.8422" transform="rotate(-180 111.137 13.6841)" fill="white"/>
<rect x="138.813" y="13.6841" width="6.91917" height="6.8422" transform="rotate(-180 138.813 13.6841)" fill="white"/>
<rect x="28.106" y="13.6841" width="6.91917" height="6.8422" transform="rotate(-180 28.106 13.6841)" fill="white"/>
<rect x="83.4598" y="13.6841" width="6.91917" height="6.8422" transform="rotate(-180 83.4598 13.6841)" fill="white"/>
<rect x="159.571" y="20.5264" width="6.91917" height="6.8422" transform="rotate(-180 159.571 20.5264)" fill="white"/>
<rect x="159.571" y="6.84229" width="6.91917" height="6.8422" transform="rotate(-180 159.571 6.84229)" fill="white"/>
<rect x="48.8633" y="20.5264" width="6.91917" height="6.8422" transform="rotate(-180 48.8633 20.5264)" fill="white"/>
<rect x="48.8633" y="6.84229" width="6.91917" height="6.8422" transform="rotate(-180 48.8633 6.84229)" fill="white"/>
<rect x="104.217" y="20.5264" width="6.91917" height="6.8422" transform="rotate(-180 104.217 20.5264)" fill="white"/>
<rect x="104.217" y="6.84229" width="6.91917" height="6.8422" transform="rotate(-180 104.217 6.84229)" fill="white"/>
<rect x="131.894" y="20.5264" width="6.91917" height="6.8422" transform="rotate(-180 131.894 20.5264)" fill="white"/>
<rect x="131.894" y="6.84229" width="6.91917" height="6.8422" transform="rotate(-180 131.894 6.84229)" fill="white"/>
<rect x="21.1874" y="20.5264" width="6.91917" height="6.8422" transform="rotate(-180 21.1874 20.5264)" fill="white"/>
<rect x="21.1874" y="6.84229" width="6.91917" height="6.8422" transform="rotate(-180 21.1874 6.84229)" fill="white"/>
<rect x="76.5407" y="20.5264" width="6.91917" height="6.8422" transform="rotate(-180 76.5407 20.5264)" fill="white"/>
<rect x="76.5407" y="6.84229" width="6.91917" height="6.8422" transform="rotate(-180 76.5407 6.84229)" fill="white"/>
</svg>
