<svg width="59" height="490" viewBox="0 0 59 490" fill="none" xmlns="http://www.w3.org/2000/svg">
<rect x="39.312" y="293.439" width="19.5564" height="19.515" transform="rotate(90 39.312 293.439)" fill="white"/>
<rect x="39.312" y="136.987" width="19.5564" height="19.515" transform="rotate(90 39.312 136.987)" fill="white"/>
<rect x="39.312" y="449.89" width="19.5564" height="19.515" transform="rotate(90 39.312 449.89)" fill="white"/>
<rect x="39.312" y="58.7627" width="19.5564" height="19.515" transform="rotate(90 39.312 58.7627)" fill="white"/>
<rect x="39.312" y="371.664" width="19.5564" height="19.515" transform="rotate(90 39.312 371.664)" fill="white"/>
<rect x="39.312" y="215.215" width="19.5564" height="19.515" transform="rotate(90 39.312 215.215)" fill="white"/>
<rect x="58.8315" y="0.09375" width="19.5564" height="19.515" transform="rotate(90 58.8315 0.09375)" fill="white"/>
<rect x="19.8003" y="0.09375" width="19.5564" height="19.515" transform="rotate(90 19.8003 0.09375)" fill="white"/>
<rect x="58.8315" y="312.996" width="19.5564" height="19.515" transform="rotate(90 58.8315 312.996)" fill="white"/>
<rect x="19.8003" y="312.996" width="19.5564" height="19.515" transform="rotate(90 19.8003 312.996)" fill="white"/>
<rect x="58.8315" y="156.544" width="19.5564" height="19.515" transform="rotate(90 58.8315 156.544)" fill="white"/>
<rect x="19.8003" y="156.544" width="19.5564" height="19.515" transform="rotate(90 19.8003 156.544)" fill="white"/>
<rect x="58.8315" y="469.445" width="19.5564" height="19.515" transform="rotate(90 58.8315 469.445)" fill="white"/>
<rect x="19.8003" y="469.445" width="19.5564" height="19.515" transform="rotate(90 19.8003 469.445)" fill="white"/>
<rect x="58.8315" y="78.3193" width="19.5564" height="19.515" transform="rotate(90 58.8315 78.3193)" fill="white"/>
<rect x="19.8003" y="78.3193" width="19.5564" height="19.515" transform="rotate(90 19.8003 78.3193)" fill="white"/>
<rect x="58.8315" y="391.223" width="19.5564" height="19.515" transform="rotate(90 58.8315 391.223)" fill="white"/>
<rect x="19.8003" y="391.223" width="19.5564" height="19.515" transform="rotate(90 19.8003 391.223)" fill="white"/>
<rect x="58.8315" y="234.771" width="19.5564" height="19.515" transform="rotate(90 58.8315 234.771)" fill="white"/>
<rect x="19.8003" y="234.771" width="19.5564" height="19.515" transform="rotate(90 19.8003 234.771)" fill="white"/>
<rect x="39.312" y="19.6494" width="19.5564" height="19.515" transform="rotate(90 39.312 19.6494)" fill="white"/>
<rect x="39.312" y="332.551" width="19.5564" height="19.515" transform="rotate(90 39.312 332.551)" fill="white"/>
<rect x="39.312" y="176.1" width="19.5564" height="19.515" transform="rotate(90 39.312 176.1)" fill="white"/>
<rect x="39.312" y="97.875" width="19.5564" height="19.515" transform="rotate(90 39.312 97.875)" fill="white"/>
<rect x="39.312" y="410.778" width="19.5564" height="19.515" transform="rotate(90 39.312 410.778)" fill="white"/>
<rect x="39.312" y="254.327" width="19.5564" height="19.515" transform="rotate(90 39.312 254.327)" fill="white"/>
<rect x="58.8315" y="39.2051" width="19.5564" height="19.515" transform="rotate(90 58.8315 39.2051)" fill="white"/>
<rect x="19.8003" y="39.2051" width="19.5564" height="19.515" transform="rotate(90 19.8003 39.2051)" fill="white"/>
<rect x="58.8315" y="352.109" width="19.5564" height="19.515" transform="rotate(90 58.8315 352.109)" fill="white"/>
<rect x="19.8003" y="352.109" width="19.5564" height="19.515" transform="rotate(90 19.8003 352.109)" fill="white"/>
<rect x="58.8315" y="195.658" width="19.5564" height="19.515" transform="rotate(90 58.8315 195.658)" fill="white"/>
<rect x="19.8003" y="195.658" width="19.5564" height="19.515" transform="rotate(90 19.8003 195.658)" fill="white"/>
<rect x="58.8315" y="117.434" width="19.5564" height="19.515" transform="rotate(90 58.8315 117.434)" fill="white"/>
<rect x="19.8003" y="117.434" width="19.5564" height="19.515" transform="rotate(90 19.8003 117.434)" fill="white"/>
<rect x="58.8315" y="430.334" width="19.5564" height="19.515" transform="rotate(90 58.8315 430.334)" fill="white"/>
<rect x="19.8003" y="430.334" width="19.5564" height="19.515" transform="rotate(90 19.8003 430.334)" fill="white"/>
<rect x="58.8315" y="273.883" width="19.5564" height="19.515" transform="rotate(90 58.8315 273.883)" fill="white"/>
<rect x="19.8003" y="273.883" width="19.5564" height="19.515" transform="rotate(90 19.8003 273.883)" fill="white"/>
</svg>
